<?xml version="1.0" encoding="UTF-8"?>
<!DOCTYPE svg PUBLIC "-//W3C//DTD SVG 1.1//EN" "http://www.w3.org/Graphics/SVG/1.1/DTD/svg11.dtd">
<!-- Creator: CorelDRAW X8 -->
<svg xmlns="http://www.w3.org/2000/svg" xml:space="preserve" width="100%" height="100%" version="1.1" style="shape-rendering:geometricPrecision; text-rendering:geometricPrecision; image-rendering:optimizeQuality; fill-rule:evenodd; clip-rule:evenodd" preserveAspectRatio="none"
viewBox="0 0 11663 1797"
 xmlns:xlink="http://www.w3.org/1999/xlink">
 <defs>
  <style type="text/css">
   <![CDATA[
    .fil2 {fill:none}
    .fil3 {fill:#FF9D4D}
    .fil4 {fill:#555659;fill-rule:nonzero}
    .fil0 {fill:#FF9D4D;fill-rule:nonzero}
    .fil1 {fill:white;fill-rule:nonzero}
   ]]>
  </style>
 </defs>
 <g id="Layer_x0020_1">
  <metadata id="CorelCorpID_0Corel-Layer"/>
  <g id="_1992229018512">
   <path class="fil0" d="M312 1784l0 -434c37,0 72,0 111,-6l248 440 320 0 0 -46 -306 -500c224,-145 217,-359 217,-591 -99,0 -197,0 -296,0 0,212 15,430 -273,430l-21 0 0 -430c-100,0 -196,0 -293,0l0 1137c97,0 193,0 293,0zm1181 -255l0 -629 132 0 0 -253 -548 0 0 253 132 0 0 629 -144 0 0 255 571 0 0 -255 -143 0zm1083 255l103 0 0 -1137c-98,0 -196,0 -294,0l0 556 -570 -561 -104 0 0 1142c98,0 198,0 297,0l0 -559 568 559zm178 -569c1,388 291,582 577,582 207,0 421,-91 502,-328 38,-111 38,-220 32,-333l-532 0 0 251 239 0c-51,109 -125,140 -241,140 -171,0 -280,-123 -280,-312 0,-174 98,-317 280,-317 114,0 188,39 235,137l283 0c-55,-283 -291,-401 -518,-403 -286,0 -576,195 -577,583z"/>
   <path class="fil1" d="M381 440c-38,39 -83,58 -134,58 -31,0 -61,-6 -89,-19 -27,-13 -51,-30 -72,-53 -20,-22 -37,-48 -49,-79 -12,-30 -18,-63 -18,-98 0,-33 6,-64 18,-93 12,-30 29,-55 50,-78 21,-22 45,-39 74,-52 28,-13 59,-19 92,-19 45,0 84,9 116,28 32,19 57,45 73,77l-70 52c-12,-24 -29,-42 -51,-55 -22,-13 -45,-19 -71,-19 -20,0 -39,4 -56,13 -17,8 -31,20 -43,35 -12,15 -21,33 -28,52 -6,20 -10,40 -10,62 0,23 4,44 11,64 7,20 17,37 30,52 13,14 28,26 45,34 17,8 36,13 56,13 47,0 89,-22 126,-67l0 -34 -97 0 0 -69 174 0 0 249 -77 0 0 -54zm157 54l0 -484 93 0 0 484 -93 0zm193 0l0 -484 322 0 0 82 -229 0 0 125 191 0 0 77 -191 0 0 200 -93 0zm747 -402l-154 0 0 402 -92 0 0 -402 -154 0 0 -82 400 0 0 82zm173 157c0,-30 6,-59 16,-88 11,-29 26,-55 46,-77 21,-23 45,-42 75,-56 29,-14 62,-21 100,-21 44,0 82,10 114,30 32,19 56,45 72,76l-71 50c-7,-14 -14,-25 -23,-35 -9,-9 -19,-16 -29,-22 -11,-5 -22,-9 -33,-12 -11,-2 -22,-4 -33,-4 -23,0 -44,5 -61,15 -17,9 -32,22 -43,37 -12,15 -21,32 -26,52 -6,19 -9,38 -9,57 0,22 3,42 10,62 7,20 16,37 29,52 12,15 27,28 44,37 18,9 37,13 57,13 11,0 22,-1 34,-4 12,-3 23,-7 34,-13 10,-6 20,-13 29,-23 9,-9 16,-20 22,-33l76 44c-8,18 -19,34 -33,48 -14,14 -30,26 -48,35 -18,10 -37,17 -57,22 -20,5 -40,8 -59,8 -35,0 -66,-8 -94,-22 -29,-15 -53,-34 -74,-57 -20,-24 -36,-50 -48,-80 -11,-30 -17,-60 -17,-91zm623 -239l82 0 182 484 -96 0 -44 -120 -168 0 -44 120 -96 0 184 -484zm107 297l-66 -190 -69 190 135 0zm210 187l0 -484 212 0c22,0 43,5 61,14 19,9 35,21 49,37 13,15 24,32 31,52 8,19 12,38 12,58 0,31 -8,60 -23,86 -16,25 -37,44 -64,55l110 182 -105 0 -98 -162 -92 0 0 162 -93 0zm93 -245l117 0c9,0 17,-2 24,-6 8,-4 14,-9 19,-16 6,-7 10,-16 13,-25 3,-10 5,-20 5,-31 0,-11 -2,-22 -5,-31 -4,-10 -9,-18 -15,-25 -6,-7 -13,-13 -21,-17 -8,-4 -16,-6 -24,-6l-113 0 0 157zm356 245l0 -484 175 0c39,0 73,6 103,19 29,13 54,30 74,52 20,22 34,47 44,77 10,29 15,60 15,93 0,37 -5,71 -16,100 -11,30 -27,56 -48,77 -21,21 -46,37 -75,49 -29,12 -61,17 -97,17l-175 0zm317 -243c0,-23 -3,-44 -9,-64 -6,-19 -16,-36 -28,-50 -12,-14 -27,-25 -45,-33 -18,-8 -38,-12 -60,-12l-81 0 0 320 81 0c23,0 43,-4 61,-12 18,-9 33,-20 44,-34 12,-15 22,-31 28,-51 6,-20 9,-41 9,-64zm453 -114c-3,-3 -9,-8 -17,-13 -9,-6 -19,-11 -31,-16 -12,-5 -25,-10 -39,-13 -13,-4 -28,-6 -42,-6 -26,0 -45,5 -58,14 -12,10 -18,23 -18,41 0,10 2,18 7,25 4,6 11,12 20,17 9,5 21,10 34,14 14,4 30,8 48,13 23,6 45,13 64,20 19,7 35,16 49,27 13,11 23,24 30,40 7,15 11,34 11,56 0,26 -5,48 -14,66 -10,19 -23,34 -40,45 -16,12 -35,20 -56,25 -22,5 -44,8 -68,8 -36,0 -71,-6 -106,-16 -35,-11 -67,-27 -95,-47l41 -81c4,4 12,9 22,16 11,7 23,13 38,20 14,6 30,12 48,16 17,5 35,7 54,7 51,0 77,-16 77,-50 0,-10 -3,-19 -9,-26 -6,-7 -14,-14 -25,-19 -11,-6 -24,-11 -39,-15 -16,-5 -33,-10 -52,-15 -23,-7 -42,-14 -59,-21 -17,-8 -31,-16 -43,-27 -11,-10 -19,-22 -25,-35 -6,-14 -8,-30 -8,-48 0,-25 4,-47 13,-66 9,-19 22,-35 38,-48 16,-12 34,-22 55,-29 22,-6 44,-9 69,-9 33,0 64,5 93,16 28,10 53,23 74,37l-41 77z"/>
  </g>
  <rect class="fil2" y="7" width="3888" height="1777"/>
  <rect class="fil2" x="3888" y="7" width="3888" height="1777"/>
  <polygon class="fil3" points="9546,892 9259,739 9345,1190 10093,1190 10179,739 9891,892 9719,600 "/>
  <rect class="fil2" x="7775" y="7" width="3888" height="1777"/>
  <g id="_1992229021200">
   <path class="fil0" d="M4200 1777l0 -433c37,0 72,0 111,-7l247 440 320 0 0 -45 -305 -501c223,-144 217,-359 217,-591 -100,0 -198,0 -296,0 0,213 14,431 -273,431l-21 0 0 -431c-100,0 -197,0 -293,0l0 1137c96,0 193,0 293,0zm1181 -255l0 -628 132 0 0 -254 -549 0 0 254 132 0 0 628 -143 0 0 255 571 0 0 -255 -143 0zm1083 255l103 0 0 -1137c-99,0 -197,0 -295,0l0 557 -569 -562 -105 0 0 1142c98,0 198,0 298,0l0 -559 568 559zm177 -568c2,388 291,581 578,581 207,0 421,-91 501,-328 39,-110 39,-219 32,-333l-532 0 0 252 240 0c-52,109 -126,140 -241,140 -171,0 -280,-124 -280,-312 0,-174 98,-317 280,-317 114,0 188,39 234,136l283 0c-54,-282 -291,-401 -517,-402 -287,0 -576,194 -578,583z"/>
   <path class="fil4" d="M4268 433c-38,39 -82,58 -133,58 -32,0 -61,-6 -89,-19 -28,-12 -52,-30 -72,-52 -21,-23 -37,-49 -49,-79 -12,-30 -18,-63 -18,-98 0,-33 6,-65 18,-94 12,-29 28,-55 49,-77 21,-22 46,-40 74,-53 29,-13 59,-19 93,-19 45,0 83,10 116,29 32,19 56,44 72,77l-69 52c-12,-24 -29,-43 -51,-56 -22,-12 -46,-19 -72,-19 -20,0 -38,5 -55,13 -17,9 -32,21 -44,36 -12,15 -21,32 -27,52 -7,19 -10,40 -10,62 0,22 4,44 11,63 7,20 17,37 29,52 13,15 28,26 45,35 18,8 37,12 57,12 46,0 88,-22 125,-66l0 -34 -96 0 0 -69 174 0 0 249 -78 0 0 -55zm157 55l0 -485 93 0 0 485 -93 0zm193 0l0 -485 323 0 0 83 -229 0 0 125 190 0 0 76 -190 0 0 201 -94 0zm747 -402l-153 0 0 402 -93 0 0 -402 -153 0 0 -83 399 0 0 83zm174 156c0,-29 5,-59 16,-87 10,-29 26,-55 46,-78 20,-23 45,-41 74,-55 30,-14 63,-21 100,-21 44,0 83,9 115,29 32,20 56,45 72,76l-72 50c-6,-13 -14,-25 -23,-34 -9,-10 -19,-17 -29,-22 -10,-6 -21,-10 -32,-12 -12,-3 -23,-4 -33,-4 -24,0 -44,5 -62,14 -17,10 -31,22 -43,37 -11,16 -20,33 -26,52 -6,20 -9,39 -9,58 0,21 4,42 10,62 7,20 17,37 29,52 13,15 27,27 45,36 17,9 36,14 57,14 11,0 22,-2 34,-4 11,-3 23,-7 33,-13 11,-6 20,-14 30,-23 9,-9 16,-21 21,-34l76 44c-7,19 -18,35 -32,49 -14,13 -30,25 -48,35 -18,9 -37,17 -57,22 -21,5 -40,7 -60,7 -34,0 -65,-7 -94,-22 -28,-14 -53,-33 -73,-57 -21,-23 -37,-50 -48,-80 -11,-29 -17,-60 -17,-91zm622 -239l82 0 183 485 -96 0 -45 -121 -167 0 -44 121 -96 0 183 -485zm107 298l-66 -190 -69 190 135 0zm211 187l0 -485 212 0c22,0 42,5 61,14 19,10 35,22 48,37 14,15 24,33 32,52 8,19 11,39 11,58 0,32 -7,60 -23,86 -15,26 -36,44 -63,56l109 182 -104 0 -98 -162 -92 0 0 162 -93 0zm93 -245l117 0c8,0 16,-2 24,-6 7,-4 14,-10 19,-17 5,-7 10,-15 13,-25 3,-9 5,-20 5,-31 0,-11 -2,-21 -6,-31 -3,-9 -8,-18 -14,-25 -6,-7 -13,-12 -21,-16 -8,-4 -16,-6 -24,-6l-113 0 0 157zm356 245l0 -485 174 0c39,0 74,7 103,19 30,13 54,31 74,52 20,22 35,48 45,77 10,30 15,61 15,94 0,37 -6,70 -17,100 -11,30 -27,55 -47,76 -21,22 -46,38 -75,50 -29,11 -62,17 -98,17l-174 0zm317 -243c0,-23 -3,-45 -10,-64 -6,-20 -15,-37 -27,-51 -13,-14 -27,-25 -45,-32 -18,-8 -38,-12 -61,-12l-81 0 0 319 81 0c23,0 44,-4 61,-12 18,-8 33,-19 45,-34 12,-14 21,-31 27,-51 7,-19 10,-40 10,-63zm452 -115c-3,-3 -8,-7 -17,-13 -8,-5 -18,-10 -30,-16 -12,-5 -25,-9 -39,-13 -14,-4 -28,-5 -43,-5 -25,0 -44,4 -57,14 -13,9 -19,23 -19,40 0,10 2,18 7,25 5,7 12,12 21,17 9,5 20,10 34,14 14,4 30,9 48,13 23,6 44,13 63,21 20,7 36,16 49,27 13,11 24,24 31,39 7,15 11,34 11,56 0,26 -5,49 -15,67 -10,18 -23,33 -39,45 -17,11 -35,19 -57,25 -21,5 -44,7 -67,7 -36,0 -72,-5 -107,-16 -35,-11 -67,-26 -94,-46l41 -82c4,5 11,10 22,16 10,7 23,14 37,20 15,7 31,12 48,17 18,5 36,7 54,7 52,0 77,-17 77,-50 0,-10 -3,-19 -9,-27 -5,-7 -14,-13 -24,-19 -11,-5 -24,-10 -40,-15 -15,-4 -32,-9 -51,-15 -23,-6 -43,-13 -60,-21 -17,-7 -31,-16 -42,-26 -11,-10 -20,-22 -25,-36 -6,-13 -9,-29 -9,-48 0,-24 5,-46 14,-65 9,-19 21,-35 37,-48 16,-13 35,-23 56,-29 21,-7 44,-10 68,-10 34,0 65,5 93,16 29,11 54,23 75,38l-42 76z"/>
  </g>
 </g>
</svg>
